HIERARCHY
ROOT ui
{
	 OFFSET 0 0 0
	 CHANNELS 3 XPosition YPosition Z Position
	 EndSite
	 {
	 OFFSET 0 -1 0
	 }
}
ROOT li
{
	 OFFSET 0 0 0
	 CHANNELS 3 XPosition YPosition Z Position
	 EndSite
	 {
	 OFFSET 0 -1 0
	 }
}
ROOT ul
{
	 OFFSET 0 0 0
	 CHANNELS 3 XPosition YPosition Z Position
	 EndSite
	 {
	 OFFSET 0 -1 0
	 }
}
ROOT ll
{
	 OFFSET 0 0 0
	 CHANNELS 3 XPosition YPosition Z Position
	 EndSite
	 {
	 OFFSET 0 -1 0
	 }
}
ROOT tt
{
	 OFFSET 0 0 0
	 CHANNELS 3 XPosition YPosition Z Position
	 EndSite
	 {
	 OFFSET 0 -1 0
	 }
}
ROOT tb
{
	 OFFSET 0 0 0
	 CHANNELS 3 XPosition YPosition Z Position
	 EndSite
	 {
	 OFFSET 0 -1 0
	 }
}
ROOT td
{
	 OFFSET 0 0 0
	 CHANNELS 3 XPosition YPosition Z Position
	 EndSite
	 {
	 OFFSET 0 -1 0
	 }
}
ROOT v
{
	 OFFSET 0 0 0
	 CHANNELS 3 XPosition YPosition Z Position
	 EndSite
	 {
	 OFFSET 0 -1 0
	 }
}
ROOT bn
{
	 OFFSET 0 0 0
	 CHANNELS 3 XPosition YPosition Z Position
	 EndSite
	 {
	 OFFSET 0 -1 0
	 }
}
MOTION
Frames: 13
Frame Time: 0.002
7.83918023109436E-4	-7.982519865036011E-4	0		0.5435689086914063	-2.327336669921875	0		-1.0592630615234375	-2.083609998226166E-4	0		-0.722958251953125	-2.273681396484375	0		1.5217626953125	-0.5110182800292968	0		3.243093505859375	-0.18619815063476564	0		4.6107236328125	-0.029852962493896483	0		5.6311865234375	0.1473946533203125	0		-0.31367608642578126	5.8606357421875	0		
0.007410061836242676	0.004755139827728272	0		0.5494022827148437	-2.3207275390625	0		-1.127613525390625	0.00799793291091919	0		-0.7171294555664063	-2.2671796875	0		1.558034423828125	-0.545631103515625	0		3.251656005859375	-0.1883892364501953	0		4.6152138671875	-0.03788816070556641	0		5.641515625	0.12999893188476563	0		-0.33356552124023436	5.864419921875	0		
0.083983642578125	0.0026239709854125976	0		0.5761475219726563	-2.3243232421875	0		-1.0520401611328125	0.00578439998626709	0		-0.7193871459960938	-2.270593505859375	0		1.527070556640625	-0.5045773620605469	0		3.259356689453125	-0.17857957458496093	0		4.6070009765625	-0.017811058044433593	0		5.63990380859375	0.1543828582763672	0		-0.3125339660644531	5.8558017578125	0		
0.006617403030395508	0.00401244592666626	0		0.5469476928710938	-2.324364990234375	0		-1.0524200439453124	0.005335254192352295	0		-0.7216118774414062	-2.27299755859375	0		1.561640380859375	-0.51416943359375	0		3.2549423828125	-0.18365884399414062	0		4.62455419921875	-0.02500130271911621	0		5.63676220703125	0.1476299285888672	0		-0.35038027954101564	5.85377001953125	0		
-0.005744241237640381	0.0017720049619674683	0		0.53582958984375	-2.318576904296875	0		-1.060830322265625	-0.0020192410945892333	0		-0.7347335205078125	-2.267280517578125	0		1.5203558349609374	-0.5120184936523438	0		3.2456328125	-0.1816966552734375	0		4.6052333984375	-0.022844608306884766	0		5.63010791015625	0.14784782409667968	0		-0.31708416748046875	5.85905859375	0		
0.0029380691051483156	3.431040048599243E-4	0		0.544596435546875	-2.326969970703125	0		-1.0570994873046875	0.0015306529998779298	0		-0.7239701538085938	-2.275776123046875	0		1.520081787109375	-0.5122611083984375	0		3.25026953125	-0.18887411499023438	0		4.60492724609375	-0.022885398864746095	0		5.63339404296875	0.13050059509277342	0		-0.36592657470703127	5.84315771484375	0		
0.0026622450351715087	1.9456999376416208E-5	0		0.5485056762695313	-2.322300048828125	0		-1.1293338623046876	0.0058319091796875	0		-0.7960413818359375	-2.268455322265625	0		1.52590283203125	-0.505552734375	0		3.239148681640625	-0.17390156555175781	0		4.6026435546875	-0.023918054580688478	0		5.62547509765625	0.16009730529785157	0		-0.3514622497558594	5.8516689453125	0		
0.005442996978759765	0.0026883640289306642	0		0.5483801879882813	-2.32257373046875	0		-1.0535947265625	0.00374803900718689	0		-0.7222205200195313	-2.27450244140625	0		1.5226439208984375	-0.5097463989257812	0		3.253814453125	-0.1841758270263672	0		4.612396484375	-0.02407354736328125	0		5.63172412109375	0.15992930603027344	0		-0.337913818359375	5.86221435546875	0		
0.002190968036651611	-5.61519980430603E-4	0		0.5462357788085938	-2.32580810546875	0		-1.0578468017578124	4.585730135440826E-4	0		-0.724357666015625	-2.27679541015625	0		1.52244384765625	-0.5099545288085937	0		3.26858935546875	-0.18544554138183594	0		4.60418408203125	-0.023063041687011718	0		5.63580224609375	0.14768357849121094	0		-0.35350277709960937	5.85206201171875	0		
-0.0029665610790252685	0.004233212947845459	0		0.5331631469726562	-2.321916015625	0		-1.062089111328125	-0.003798543930053711	0		-0.7374228515625	-2.271954833984375	0		1.5192314453125	-0.5131168212890626	0		3.238496826171875	-0.17428376770019532	0		4.60397998046875	-0.023129179000854493	0		5.62924169921875	0.14778158569335936	0		-0.3198891296386719	5.8574755859375	0		
-0.008120327949523927	0.008056010246276855	0		0.54399658203125	-2.328223876953125	0		-1.1342396240234376	6.153479814529418E-4	0		-0.7635802612304687	-2.27696044921875	0		1.5467662353515625	-0.5445485229492187	0		3.24917041015625	-0.1894964141845703	0		4.61177978515625	-0.024266395568847656	0		5.635509765625	0.14239482116699217	0		-0.352359619140625	5.849541015625	0		
0.0016121939420700073	-0.0012316720485687255	0		0.5568468627929688	-2.33252294921875	0		-1.054397705078125	0.002638572931289673	0		-0.7127518310546875	-2.283654541015625	0		1.5586090087890625	-0.5438079833984375	0		3.255208251953125	-0.16664888000488282	0		4.604654296875	-0.018255090713500975	0		5.6340693359375	0.17179194641113282	0		-0.3376370544433594	5.8581953125	0		
0.004461977005004883	0.001575464963912964	0		0.5498338012695313	-2.321608154296875	0		-1.050538818359375	0.0064081897735595705	0		-0.7227940673828125	-2.275745361328125	0		1.524791748046875	-0.5066159362792969	0		3.242007080078125	-0.16960560607910155	0		4.6174853515625	-0.0174183349609375	0		5.63817822265625	0.15955633544921874	0		-0.3540451965332031	5.8501708984375	0		
